<?xml version="1.0" encoding="UTF-8" standalone="no"?>
<!-- Created with Inkscape (http://www.inkscape.org/) -->

<svg
   width="45.78323"
   height="35.213993"
   viewBox="0 0 12.11348 9.3170357"
   version="1.1"
   id="svg420"
   xml:space="preserve"
   inkscape:version="1.2.2 (b0a8486541, 2022-12-01)"
   sodipodi:docname="icons.svg"
   inkscape:export-filename="rosy.png"
   inkscape:export-xdpi="709.40741"
   inkscape:export-ydpi="709.40741"
   xmlns:inkscape="http://www.inkscape.org/namespaces/inkscape"
   xmlns:sodipodi="http://sodipodi.sourceforge.net/DTD/sodipodi-0.dtd"
   xmlns="http://www.w3.org/2000/svg"
   xmlns:svg="http://www.w3.org/2000/svg"><sodipodi:namedview
     id="namedview422"
     pagecolor="#505050"
     bordercolor="#eeeeee"
     borderopacity="1"
     inkscape:showpageshadow="0"
     inkscape:pageopacity="0"
     inkscape:pagecheckerboard="0"
     inkscape:deskcolor="#505050"
     inkscape:document-units="mm"
     showgrid="false"
     showguides="true"
     inkscape:zoom="1.9397872"
     inkscape:cx="144.86125"
     inkscape:cy="157.74927"
     inkscape:window-width="1920"
     inkscape:window-height="1024"
     inkscape:window-x="0"
     inkscape:window-y="33"
     inkscape:window-maximized="1"
     inkscape:current-layer="layer1"><sodipodi:guide
       position="37.381101,66.604782"
       orientation="0,-1"
       id="guide4332"
       inkscape:locked="false" /><sodipodi:guide
       position="49.073342,57.04988"
       orientation="0,-1"
       id="guide4334"
       inkscape:locked="false" /></sodipodi:namedview><defs
     id="defs417" /><g
     inkscape:label="Ebene 1"
     inkscape:groupmode="layer"
     id="layer1"
     transform="translate(-43.883736,-58.992748)"><g
       id="g27327"
       transform="translate(-43.446333,57.084855)"
       inkscape:export-filename="./icons/skybase.png"
       inkscape:export-xdpi="174.47612"
       inkscape:export-ydpi="174.47612"><path
         id="path25505"
         style="fill:#747272;fill-opacity:1;stroke:none;stroke-width:0.264583px;stroke-linecap:butt;stroke-linejoin:miter;stroke-opacity:1"
         d="m 92.05017,10.101709 c -0.0066,7.89e-4 -0.0131,0.0018 -0.01964,0.0026 -0.01255,0.0015 -0.02523,0.0027 -0.03772,0.0041 -0.01249,0.0014 -0.02478,0.0028 -0.03721,0.0041 -0.01242,0.0013 -0.02486,0.0024 -0.03721,0.0036 -0.01235,0.0012 -0.02443,0.0026 -0.03669,0.0036 -0.01226,0.0011 -0.02453,0.0017 -0.03669,0.0026 -0.01216,9.2e-4 -0.02463,0.0018 -0.03669,0.0026 -0.01206,7.71e-4 -0.02371,0.0015 -0.03566,0.0021 -0.01194,6.08e-4 -0.02383,0.0011 -0.03566,0.0016 -0.01182,4.31e-4 -0.02397,7.91e-4 -0.03566,10e-4 -0.01169,2.43e-4 -0.02307,4.76e-4 -0.03462,5.17e-4 -0.01155,4.1e-5 -0.02322,1.74e-4 -0.03462,0 -0.0114,-1.74e-4 -0.02235,-6.32e-4 -0.03359,-0.001 -0.0056,-2e-4 -0.01148,-2.56e-4 -0.01705,-5.16e-4 -0.0056,-2.6e-4 -0.011,-7.13e-4 -0.01654,-10e-4 -0.0055,-3.21e-4 -0.01104,-6.5e-4 -0.01654,-0.001 -0.0055,-3.84e-4 -0.01109,-0.0011 -0.01654,-0.0016 -0.0054,-4.48e-4 -0.01062,-5.19e-4 -0.01602,-10e-4 -0.0054,-5.14e-4 -0.01118,-0.0015 -0.01654,-0.0021 -0.0054,-5.81e-4 -0.01071,-9e-4 -0.01602,-0.0016 -0.0053,-6.5e-4 -0.01025,-0.0013 -0.0155,-0.0021 -0.0053,-7.21e-4 -0.01081,-0.0013 -0.01602,-0.0021 -0.0052,-7.93e-4 -0.01035,-0.0017 -0.0155,-0.0026 -0.0052,-8.68e-4 -0.0099,-0.0022 -0.01499,-0.0031 -0.0051,-9.43e-4 -0.01046,-0.0016 -0.0155,-0.0026 -0.005,-0.001 -0.01,-0.002 -0.01499,-0.0031 -0.005,-0.0011 -0.01005,-0.0024 -0.01499,-0.0036 -0.0049,-0.0012 -0.0096,-0.0024 -0.01447,-0.0036 -0.0049,-0.0013 -0.0096,-0.0028 -0.01447,-0.0041 -0.0048,-0.0013 -0.0097,-0.0027 -0.01447,-0.0041 -0.0048,-0.0014 -0.0098,-0.0026 -0.01447,-0.0041 -0.0047,-0.0015 -0.0093,-0.003 -0.01395,-0.0047 -0.0046,-0.0016 -0.0094,-0.0035 -0.01395,-0.0052 -0.0046,-0.0017 -0.0089,-0.0034 -0.01344,-0.0052 -0.0045,-0.0018 -0.009,-0.0038 -0.01344,-0.0057 -0.0044,-0.0019 -0.0091,-0.0037 -0.01344,-0.0057 -0.0044,-0.002 -0.0086,-0.0041 -0.01292,-0.0062 -0.0043,-0.0021 -0.0087,-0.004 -0.01292,-0.0062 -0.0042,-0.0022 -0.0082,-0.0044 -0.0124,-0.0067 -0.0042,-0.0023 -0.0083,-0.0043 -0.0124,-0.0067 -0.0041,-0.0024 -0.0084,-0.0048 -0.0124,-0.0072 -0.004,-0.0025 -0.0079,-0.0052 -0.01189,-0.0078 -0.004,-0.0026 -0.008,-0.0051 -0.01189,-0.0078 -0.0039,-0.0027 -0.0076,-0.0055 -0.01137,-0.0083 -0.0038,-0.00279 -0.0076,-0.00588 -0.01137,-0.00878 -0.0037,-0.0029 -0.0072,-0.00577 -0.01085,-0.00878 -0.0037,-0.00302 -0.0073,-0.00617 -0.01085,-0.0093 -0.0036,-0.00313 -0.0074,-0.00606 -0.01085,-0.0093 -0.0035,-0.00324 -0.0069,-0.00646 -0.01034,-0.00982 -0.0034,-0.00336 -0.0065,-0.00686 -0.0098,-0.010335 -0.0033,-0.00348 -0.0066,-0.00726 -0.0098,-0.010852 -0.0014,-0.0016 -0.0033,-0.00283 -0.0046,-0.00413 -0.0014,-0.0013 -0.0028,-0.00261 -0.0041,-0.00362 -0.0013,-0.00101 -0.0023,-0.00186 -0.0036,-0.00258 -0.0013,-7.215e-4 -0.0024,-0.00111 -0.0036,-0.00155 -0.0065,0.220551 0.0063,0.470386 0.04806,0.588078 0.07514,0.211845 0.936894,-0.2651 0.936894,-0.2651 z"
         inkscape:export-filename="./path25505.png"
         inkscape:export-xdpi="709.40741"
         inkscape:export-ydpi="709.40741" /><path
         id="path25529"
         style="fill:#2c2b2b;fill-opacity:1;stroke:none;stroke-width:0.264583px;stroke-linecap:butt;stroke-linejoin:miter;stroke-opacity:1"
         d="m 91.166503,9.50743 c -0.02985,0.00156 -0.04973,0.00956 -0.05684,0.025322 -0.02529,0.05604 -0.04285,0.2137205 -0.04806,0.390157 0.0012,4.418e-4 0.0023,8.288e-4 0.0036,0.00155 0.0013,7.215e-4 0.0023,0.00158 0.0036,0.00258 0.0013,0.00101 0.0027,0.00231 0.0041,0.00362 0.0014,0.0013 0.0032,0.00253 0.0046,0.00413 0.0032,0.0036 0.0065,0.00738 0.0098,0.010852 0.0033,0.00348 0.0064,0.00698 0.0098,0.010335 0.0034,0.00336 0.0068,0.00658 0.01034,0.00982 0.0035,0.00324 0.0073,0.00617 0.01085,0.0093 0.0036,0.00313 0.0072,0.00629 0.01085,0.0093 0.0037,0.00301 0.0071,0.00588 0.01085,0.00878 0.0037,0.0029 0.0076,0.00599 0.01137,0.00878 0.0038,0.0028 0.0075,0.0056 0.01137,0.0083 0.0039,0.0027 0.0079,0.0052 0.01189,0.0078 0.004,0.0026 0.0079,0.0053 0.01189,0.0078 0.004,0.0025 0.0083,0.0049 0.0124,0.0072 0.0041,0.0024 0.0082,0.0044 0.0124,0.0067 0.0042,0.0023 0.0082,0.0045 0.0124,0.0067 0.0042,0.0022 0.0086,0.0041 0.01292,0.0062 0.0043,0.0021 0.0085,0.0042 0.01292,0.0062 0.0044,0.002 0.009,0.0038 0.01344,0.0057 0.0044,0.0019 0.0089,0.0039 0.01344,0.0057 0.0045,0.0018 0.0089,0.0035 0.01344,0.0052 0.0046,0.0017 0.0093,0.0036 0.01395,0.0052 0.0046,0.0016 0.0093,0.0031 0.01395,0.0047 0.0047,0.0015 0.0097,0.0027 0.01447,0.0041 0.0048,0.0014 0.0096,0.0028 0.01447,0.0041 0.0048,0.0013 0.0096,0.0029 0.01447,0.0041 0.0049,0.0013 0.0095,0.0024 0.01447,0.0036 0.0049,0.0012 0.01,0.0025 0.01499,0.0036 0.005,0.0011 0.0099,0.0021 0.01499,0.0031 0.005,10e-4 0.0104,0.0016 0.0155,0.0026 0.0051,9.43e-4 0.0098,0.0022 0.01499,0.0031 0.0052,8.67e-4 0.0103,0.0018 0.0155,0.0026 0.0052,7.94e-4 0.01076,0.0013 0.01602,0.0021 0.0053,7.21e-4 0.0102,0.0014 0.0155,0.0021 0.0053,6.51e-4 0.01067,9.7e-4 0.01602,0.0016 0.0054,5.81e-4 0.01114,0.0016 0.01654,0.0021 0.0054,5.14e-4 0.01057,5.85e-4 0.01602,0.001 0.0054,4.48e-4 0.01105,0.0012 0.01654,0.0016 0.0055,3.83e-4 0.011,7.12e-4 0.01654,10e-4 0.0055,3.21e-4 0.01096,7.74e-4 0.01654,10e-4 0.0056,2.6e-4 0.01143,3.16e-4 0.01705,5.16e-4 0.01124,4.02e-4 0.02219,8.6e-4 0.03359,10e-4 0.0114,1.74e-4 0.02307,4.1e-5 0.03462,0 0.01155,-4.1e-5 0.02293,-2.74e-4 0.03462,-5.17e-4 0.01169,-2.42e-4 0.02383,-6.02e-4 0.03566,-10e-4 0.01182,-4.32e-4 0.02371,-9.43e-4 0.03566,-0.0016 0.01195,-6.07e-4 0.0236,-0.0013 0.03566,-0.0021 0.01206,-7.7e-4 0.02453,-0.0017 0.03669,-0.0026 0.01216,-9.21e-4 0.02443,-0.0015 0.03669,-0.0026 0.01226,-0.0011 0.02434,-0.0024 0.03669,-0.0036 0.01235,-0.0012 0.02478,-0.0023 0.03721,-0.0036 0.01242,-0.0013 0.02471,-0.0027 0.03721,-0.0041 0.01249,-0.0014 0.02517,-0.0027 0.03772,-0.0041 0.0065,-7.69e-4 0.01308,-0.0018 0.01964,-0.0026 l 0.0083,-0.3105754 c 0,0 -0.683021,-0.2946176 -0.891935,-0.2837036 z" /><rect
         style="opacity:0.99;fill:#858484;fill-opacity:0.980311;stroke-width:0.066;stroke-linecap:round;stroke-linejoin:round;paint-order:stroke fill markers"
         id="rect25138"
         width="3.4245646"
         height="3.034688"
         x="92.020317"
         y="8.1902399"
         rx="0.6774357"
         ry="0.6774357" /><path
         style="fill:#858484;fill-opacity:0.980311;stroke:none;stroke-width:0.264583px;stroke-linecap:butt;stroke-linejoin:miter;stroke-opacity:1"
         d="m 95.331713,11.214236 1.851626,-1.176481 h -2.035597 z"
         id="path25140"
         sodipodi:nodetypes="cccc" /><path
         style="fill:#84faab;fill-opacity:0.987574;stroke:none;stroke-width:0.264583px;stroke-linecap:butt;stroke-linejoin:miter;stroke-opacity:1"
         d="m 88.186349,6.8114938 c 0.865877,0.4613904 1.829997,0.8441867 3.225321,0.8820174 l -2.633578,1.7707655 z"
         id="path25533"
         sodipodi:nodetypes="cccc" /><path
         style="fill:#84faab;fill-opacity:0.987574;stroke:none;stroke-width:0.264583px;stroke-linecap:butt;stroke-linejoin:miter;stroke-opacity:1"
         d="M 88.333494,4.1920215 87.88747,1.9794566 91.469459,2.8743061 c -1.376044,0.1914825 -2.516836,0.5592011 -3.135965,1.3177154 z"
         id="path25535"
         sodipodi:nodetypes="cccc" /><path
         id="path25084"
         style="opacity:0.99;fill:#2ba11f;fill-opacity:0.980311;stroke-width:0.066;stroke-linecap:round;stroke-linejoin:round;paint-order:stroke fill markers"
         d="m 99.267326,4.7190918 c -0.01297,0.025495 -0.02626,0.051163 -0.04082,0.077515 -0.01787,0.032332 -0.03712,0.065187 -0.05736,0.098702 -0.02024,0.033515 -0.04148,0.067739 -0.06408,0.1023194 -0.0226,0.03458 -0.04639,0.069892 -0.07131,0.1054199 -0.02492,0.035528 -0.0508,0.071128 -0.07803,0.107487 -0.02723,0.036359 -0.05575,0.073515 -0.08527,0.1105875 -0.02952,0.037072 -0.0602,0.07447 -0.09198,0.1121379 -0.03179,0.037668 -0.06467,0.075541 -0.0987,0.1136881 -0.03403,0.038147 -0.06916,0.076214 -0.10542,0.1147217 -0.03625,0.038508 -0.07368,0.07752 -0.112138,0.116272 -0.03846,0.038752 -0.07822,0.077393 -0.118856,0.116272 -0.04064,0.038879 -0.08226,0.077901 -0.125057,0.1167887 -0.0428,0.038888 -0.08633,0.077492 -0.131258,0.116272 -0.04493,0.03878 -0.09093,0.077718 -0.137976,0.1162719 -0.04705,0.038554 -0.09555,0.077027 -0.144694,0.1152385 -0.04914,0.038211 -0.09916,0.075937 -0.150378,0.1136881 -0.05122,0.037751 -0.103312,0.075481 -0.15658,0.1126547 -0.05327,0.037173 -0.107483,0.074109 -0.162781,0.1105875 -0.0553,0.036478 -0.111675,0.072338 -0.168982,0.1080038 -0.05731,0.035666 -0.115889,0.071201 -0.175183,0.1059367 -0.05929,0.034736 -0.119608,0.06863 -0.180867,0.1023193 -0.06126,0.033689 -0.123349,0.066694 -0.186552,0.099219 -0.0632,0.032525 -0.127627,0.064876 -0.192753,0.096118 -0.06513,0.031243 -0.130893,0.061624 -0.197921,0.091467 -0.06703,0.029844 -0.135214,0.059006 -0.204122,0.087333 -0.06891,0.028327 -0.138524,0.055989 -0.209289,0.082682 -0.07077,0.026693 -0.142372,0.052573 -0.214974,0.077515 -0.0726,0.024942 -0.14624,0.048757 -0.220659,0.07183 -0.07442,0.023073 -0.149613,0.045059 -0.225826,0.066146 -0.07621,0.021087 -0.153525,0.041478 -0.23151,0.060461 -0.03899,0.00949 -0.07839,0.018444 -0.117822,0.027388 -0.03943,0.00894 -0.07899,0.017457 -0.118856,0.025838 -0.03987,0.00838 -0.07959,0.016484 -0.11989,0.024288 -0.0403,0.0078 -0.08122,0.015525 -0.121956,0.022738 -0.04073,0.00721 -0.08131,0.014064 -0.122473,0.020671 -0.04116,0.00661 -0.08295,0.013135 -0.12454,0.01912 -0.04159,0.00598 -0.08305,0.011704 -0.125057,0.017053 -0.04201,0.00535 -0.08418,0.010288 -0.126608,0.014986 -0.04243,0.0047 -0.08531,0.00889 -0.128157,0.012919 -0.04285,0.00403 -0.08593,0.00802 -0.129191,0.011369 -0.04326,0.00335 -0.08655,0.00613 -0.130225,0.00878 -0.04368,0.00266 -0.08769,0.00477 -0.131775,0.00672 -0.04408,0.00195 -0.08832,0.00394 -0.132808,0.00517 -0.04449,0.00123 -0.08895,0.0021 -0.133842,0.00258 -0.0449,4.873e-4 -0.0901,2.66e-4 -0.135392,0 -0.0453,-2.66e-4 -0.09073,-5.164e-4 -0.136426,-0.00155 -0.0457,-0.00103 -0.09188,-0.00283 -0.137976,-0.00465 -0.04609,-0.00182 -0.09252,-0.0041 -0.13901,-0.00672 -0.04649,-0.00261 -0.09317,-0.00536 -0.140043,-0.00878 -0.04688,-0.00343 -0.09381,-0.00712 -0.141077,-0.011369 -0.04726,-0.00425 -0.09446,-0.00938 -0.14211,-0.014469 -0.04765,-0.00509 -0.09563,-0.010587 -0.14366,-0.016536 -0.04803,-0.00595 -0.09628,-0.0123 -0.144694,-0.01912 -0.04841,-0.00682 -0.09694,-0.013999 -0.145728,-0.021704 -0.04879,-0.00771 -0.09811,-0.015683 -0.147278,-0.024288 -0.04917,-0.00861 -0.09826,-0.017869 -0.147794,-0.027389 -0.04954,-0.00952 -0.09944,-0.019523 -0.149345,-0.029972 -0.04991,-0.010449 -0.100104,-0.021163 -0.150379,-0.032556 -0.05027,-0.011393 -0.100256,-0.023305 -0.150895,-0.035657 -0.05064,-0.012351 -0.101446,-0.025432 -0.152445,-0.038757 -0.051,-0.013325 -0.102638,-0.027028 -0.153996,-0.041341 -0.05136,-0.014313 -0.102798,-0.029126 -0.154513,-0.044442 -0.05171,-0.015315 -0.103478,-0.03121 -0.155546,-0.047542 -0.05207,-0.016333 -0.104161,-0.032761 -0.156579,-0.050126 -0.05242,-0.017365 -0.105364,-0.035332 -0.15813,-0.053743 -0.05277,-0.018411 -0.105535,-0.037372 -0.158647,-0.056844 -0.05311,-0.019473 -0.106226,-0.039396 -0.15968,-0.059945 -0.05345,-0.020548 -0.107436,-0.041923 -0.16123,-0.063562 -0.05379,-0.021639 -0.107616,-0.043918 -0.161748,-0.066663 -0.05413,-0.022744 -0.108315,-0.045899 -0.16278,-0.069763 -0.05447,-0.023865 -0.109017,-0.048381 -0.163815,-0.073381 -0.0548,-0.024999 -0.109721,-0.050333 -0.164847,-0.076481 -0.05513,-0.026148 -0.110429,-0.052786 -0.165882,-0.080099 -0.05545,-0.027312 -0.111138,-0.055225 -0.166915,-0.083716 -0.05578,-0.028491 -0.11185,-0.057649 -0.167948,-0.087333 -0.0561,-0.029684 -0.112565,-0.060058 -0.168982,-0.09095 -0.05642,-0.030892 -0.112766,-0.062453 -0.169499,-0.094568 -0.05673,-0.032115 -0.113486,-0.064833 -0.170532,-0.098185 -0.05705,-0.033352 -0.11421,-0.067198 -0.171566,-0.1018025 -0.05736,-0.034604 -0.114935,-0.070066 -0.172599,-0.1059367 -0.05766,-0.035871 -0.115664,-0.072402 -0.173633,-0.1095541 -0.01084,-0.00695 -0.0217,-0.014194 -0.03256,-0.021187 a 6.0567136,3.6947939 0 0 0 6.000151,3.2039388 6.0567136,3.6947939 0 0 0 6.056477,-3.6948649 6.0567136,3.6947939 0 0 0 -0.176216,-0.883667 z" /><path
         id="path25575"
         style="opacity:0.99;fill:#3bd13b;fill-opacity:0.980311;stroke-width:0.066;stroke-linecap:round;stroke-linejoin:round;paint-order:stroke fill markers"
         d="m 93.387065,1.9078939 a 6.0567136,3.6947939 0 0 0 -6.056995,3.6948649 6.0567136,3.6947939 0 0 0 0.05684,0.4909261 c 0.01085,0.00699 0.02172,0.014239 0.03256,0.021187 0.05797,0.037153 0.115969,0.073683 0.173633,0.1095541 0.05766,0.035871 0.115243,0.071332 0.172599,0.1059367 0.05736,0.034604 0.114521,0.06845 0.171566,0.1018025 0.05705,0.033352 0.1138,0.06607 0.170532,0.098185 0.05673,0.032115 0.113082,0.063676 0.169499,0.094568 0.05642,0.030892 0.112884,0.061266 0.168982,0.09095 0.0561,0.029684 0.112171,0.058842 0.167948,0.087333 0.05578,0.028491 0.111462,0.056404 0.166915,0.083716 0.05545,0.027312 0.110755,0.05395 0.165882,0.080099 0.05513,0.026148 0.11005,0.051482 0.164847,0.076481 0.0548,0.024999 0.109349,0.049516 0.163815,0.073381 0.05446,0.023864 0.108649,0.047019 0.16278,0.069763 0.05413,0.022744 0.107954,0.045024 0.161748,0.066663 0.05379,0.021639 0.107776,0.043014 0.16123,0.063562 0.05345,0.020549 0.106569,0.040472 0.15968,0.059945 0.05311,0.019473 0.105881,0.038433 0.158647,0.056844 0.05277,0.018411 0.105712,0.036379 0.15813,0.053743 0.05242,0.017365 0.104512,0.033794 0.156579,0.050126 0.05207,0.016333 0.103832,0.032227 0.155546,0.047542 0.05172,0.015315 0.103155,0.030129 0.154513,0.044442 0.05136,0.014313 0.102996,0.028016 0.153996,0.041341 0.051,0.013325 0.101807,0.026406 0.152445,0.038757 0.05064,0.012352 0.100621,0.024264 0.150895,0.035657 0.05027,0.011393 0.100471,0.022107 0.150379,0.032556 0.04991,0.010449 0.09981,0.020453 0.149345,0.029972 0.04954,0.00952 0.09863,0.018783 0.147794,0.027389 0.04917,0.00861 0.09849,0.016583 0.147278,0.024288 0.04879,0.00771 0.09731,0.014884 0.145728,0.021704 0.04841,0.00682 0.09666,0.013171 0.144694,0.01912 0.04803,0.00595 0.09601,0.011443 0.14366,0.016536 0.04765,0.00509 0.09485,0.010217 0.14211,0.014469 0.04727,0.00425 0.0942,0.00794 0.141077,0.011369 0.04688,0.00343 0.09356,0.00617 0.140043,0.00878 0.04649,0.00261 0.09292,0.0049 0.13901,0.00672 0.04609,0.00182 0.09228,0.00362 0.137976,0.00465 0.0457,0.00103 0.09113,0.00128 0.136426,0.00155 0.0453,2.66e-4 0.0905,4.873e-4 0.135392,0 0.0449,-4.872e-4 0.08935,-0.00136 0.133842,-0.00258 0.04449,-0.00123 0.08872,-0.00322 0.132808,-0.00517 0.04408,-0.00195 0.0881,-0.00406 0.131775,-0.00672 0.04368,-0.00266 0.08696,-0.00543 0.130225,-0.00878 0.04326,-0.00335 0.08634,-0.00734 0.129191,-0.011369 0.04285,-0.00403 0.08573,-0.00822 0.128157,-0.012919 0.04243,-0.0047 0.0846,-0.00964 0.126608,-0.014986 0.04201,-0.00535 0.08347,-0.011068 0.125057,-0.017053 0.04159,-0.00598 0.08338,-0.012514 0.12454,-0.01912 0.04116,-0.00661 0.08174,-0.013458 0.122473,-0.020671 0.04073,-0.00721 0.08166,-0.014933 0.121956,-0.022738 0.0403,-0.0078 0.08002,-0.015906 0.11989,-0.024288 0.03987,-0.00838 0.07942,-0.016894 0.118856,-0.025838 0.03943,-0.00894 0.07883,-0.017896 0.117822,-0.027388 0.07798,-0.018984 0.155298,-0.039374 0.23151,-0.060461 0.07621,-0.021087 0.151408,-0.043073 0.225826,-0.066146 0.07442,-0.023073 0.148056,-0.046888 0.220659,-0.07183 0.0726,-0.024942 0.144208,-0.050822 0.214974,-0.077515 0.07077,-0.026693 0.140382,-0.054355 0.209289,-0.082682 0.06891,-0.028327 0.137094,-0.05749 0.204122,-0.087333 0.06703,-0.029844 0.132794,-0.060225 0.197921,-0.091467 0.06513,-0.031243 0.129549,-0.063594 0.192753,-0.096118 0.0632,-0.032525 0.125292,-0.06553 0.186552,-0.099219 0.06126,-0.033689 0.121574,-0.067583 0.180867,-0.1023193 0.05929,-0.034736 0.117877,-0.070271 0.175183,-0.1059367 0.05731,-0.035666 0.113684,-0.071526 0.168982,-0.1080038 0.0553,-0.036478 0.109513,-0.073414 0.162781,-0.1105875 0.05327,-0.037173 0.105363,-0.074904 0.15658,-0.1126547 0.05122,-0.037751 0.101235,-0.075477 0.150378,-0.1136881 0.04914,-0.038211 0.09764,-0.076684 0.144694,-0.1152385 0.04705,-0.038554 0.09304,-0.077492 0.137976,-0.1162719 0.04493,-0.038779 0.08846,-0.077384 0.131258,-0.116272 0.0428,-0.038888 0.08442,-0.07791 0.125057,-0.1167887 0.04064,-0.038879 0.0804,-0.07752 0.118856,-0.116272 0.03846,-0.038752 0.07588,-0.077764 0.112138,-0.116272 0.03626,-0.038508 0.07139,-0.076575 0.10542,-0.1147217 0.03403,-0.038147 0.06691,-0.07602 0.0987,-0.1136881 0.03179,-0.037668 0.06246,-0.075066 0.09198,-0.1121379 0.02952,-0.037072 0.05803,-0.074229 0.08527,-0.1105875 0.02723,-0.036359 0.05311,-0.071959 0.07803,-0.107487 0.02492,-0.035528 0.04872,-0.07084 0.07131,-0.1054199 0.02259,-0.03458 0.04384,-0.068805 0.06408,-0.1023194 0.02024,-0.033515 0.03949,-0.06637 0.05736,-0.098702 0.01457,-0.026352 0.02785,-0.052019 0.04082,-0.077515 a 6.0567136,3.6947939 0 0 0 -5.88025,-2.8111976 z" /><path
         style="fill:#84faab;fill-opacity:0.987574;stroke:none;stroke-width:0.264583px;stroke-linecap:butt;stroke-linejoin:miter;stroke-opacity:1"
         d="m 88.879169,5.2557231 2.766337,0.00289 c -1.002182,0.48794 -1.874629,1.0039725 -3.063511,1.0339839 z"
         id="path25537"
         sodipodi:nodetypes="cccc" /><path
         id="rect25138-1"
         style="opacity:0.99;fill:#494848;fill-opacity:0.980311;stroke-width:0.066;stroke-linecap:round;stroke-linejoin:round;paint-order:stroke fill markers"
         d="m 92.010988,10.544376 c 0,0.375299 0.302179,0.677478 0.677478,0.677478 h 2.551265 c 0.24629,0 0.460734,-0.130554 0.579293,-0.326079 1.24e-4,-2.03e-4 3.94e-4,-3.13e-4 5.17e-4,-5.16e-4 l 1.392143,-0.880816 c -1.174361,0.466015 -3.867352,1.899823 -5.198753,0.08014 z"
         sodipodi:nodetypes="cssscccc" /><circle
         style="opacity:0.99;fill:#217b17;fill-opacity:0.994216;stroke:none;stroke-width:0.0279498;stroke-linecap:round;stroke-linejoin:round;paint-order:stroke fill markers"
         id="path25954"
         cx="95.106888"
         cy="5.7641191"
         r="1.6623251" /><path
         style="fill:#217b17;fill-opacity:0.994216;stroke:none;stroke-width:0.112046px;stroke-linecap:butt;stroke-linejoin:miter;stroke-opacity:1"
         d="m 97.497133,4.6272087 -0.12707,0.9070295 0.403311,0.3767236 -0.43946,0.3682872 0.237213,0.6384536 -2.492282,-0.823421 -2.530887,0.8479375 0.464623,-0.6551974 -0.692028,-0.3682873 0.65588,-0.3767236 -0.335169,-0.9070294 2.447152,1.2455157 z"
         id="path25956"
         sodipodi:nodetypes="ccccccccccccc" /><path
         style="fill:#217b17;fill-opacity:0.994216;stroke:none;stroke-width:0.112046px;stroke-linecap:butt;stroke-linejoin:miter;stroke-opacity:1"
         d="m 95.961715,4.3538917 0.299816,-0.3345583 0.41948,0.4655356 -0.193853,0.3788674 z"
         id="path26732"
         sodipodi:nodetypes="ccccc" /><path
         style="fill:#217b17;fill-opacity:0.994216;stroke:none;stroke-width:0.112046px;stroke-linecap:butt;stroke-linejoin:miter;stroke-opacity:1"
         d="M 94.241406,4.3628484 93.941589,4.0282901 93.52211,4.4938257 93.715962,4.8726931 Z"
         id="path26732-1"
         sodipodi:nodetypes="ccccc" /><path
         style="fill:#84faab;fill-opacity:0.988235;stroke:#217b17;stroke-width:0.112046px;stroke-linecap:butt;stroke-linejoin:miter;stroke-opacity:0.996078"
         d="m 95.105194,5.942562 -1.109319,0.5929098 c 0.703395,0.6440654 1.4354,0.60515 2.191124,0 z"
         id="path26758"
         sodipodi:nodetypes="cccc" /><circle
         style="opacity:0.99;fill:#84faab;fill-opacity:0.987574;stroke:none;stroke-width:0.0279498;stroke-linecap:round;stroke-linejoin:round;paint-order:stroke fill markers"
         id="path26708-8"
         cx="94.507973"
         cy="5.324841"
         r="0.37083593" /><circle
         style="opacity:0.99;fill:#84faab;fill-opacity:0.987574;stroke:none;stroke-width:0.0279498;stroke-linecap:round;stroke-linejoin:round;stroke-opacity:0.996078;paint-order:stroke fill markers"
         id="path26708-8-1"
         cx="95.69651"
         cy="5.3330708"
         r="0.37083593" /><path
         style="fill:#217b17;fill-opacity:0.996078;stroke:#217b17;stroke-width:0.112046px;stroke-linecap:butt;stroke-linejoin:miter;stroke-opacity:0.996078"
         d="M 95.093967,6.0002968 V 7.0184173"
         id="path26780"
         sodipodi:nodetypes="cc" /><path
         style="fill:#217b17;fill-opacity:0.996078;stroke:#217b17;stroke-width:0.112046px;stroke-linecap:butt;stroke-linejoin:miter;stroke-opacity:0.996078"
         d="M 95.407416,6.0541372 V 6.93615"
         id="path26782"
         sodipodi:nodetypes="cc" /><path
         style="fill:#217b17;fill-opacity:0.996078;stroke:#217b17;stroke-width:0.112046px;stroke-linecap:butt;stroke-linejoin:miter;stroke-opacity:0.996078"
         d="M 95.722198,6.2662051 V 6.8155935"
         id="path26784"
         sodipodi:nodetypes="cc" /><path
         style="fill:#217b17;fill-opacity:0.996078;stroke:#217b17;stroke-width:0.112046px;stroke-linecap:butt;stroke-linejoin:miter;stroke-opacity:0.996078"
         d="M 94.76668,6.0762469 V 6.9582597"
         id="path26782-7"
         sodipodi:nodetypes="cc" /><path
         style="fill:#217b17;fill-opacity:0.996078;stroke:#217b17;stroke-width:0.112046px;stroke-linecap:butt;stroke-linejoin:miter;stroke-opacity:0.996078"
         d="M 94.451897,6.2883147 V 6.8377032"
         id="path26784-9"
         sodipodi:nodetypes="cc" /></g></g></svg>
