<?xml version="1.0" encoding="UTF-8" standalone="no"?>
<!-- Created with Inkscape (http://www.inkscape.org/) -->

<svg
   width="37.141453"
   height="33.916229"
   viewBox="0 0 9.8270094 8.973669"
   version="1.1"
   id="svg420"
   xml:space="preserve"
   inkscape:version="1.2.2 (b0a8486541, 2022-12-01)"
   sodipodi:docname="icons.svg"
   inkscape:export-filename="rosy.png"
   inkscape:export-xdpi="709.40741"
   inkscape:export-ydpi="709.40741"
   xmlns:inkscape="http://www.inkscape.org/namespaces/inkscape"
   xmlns:sodipodi="http://sodipodi.sourceforge.net/DTD/sodipodi-0.dtd"
   xmlns="http://www.w3.org/2000/svg"
   xmlns:svg="http://www.w3.org/2000/svg"><sodipodi:namedview
     id="namedview422"
     pagecolor="#505050"
     bordercolor="#eeeeee"
     borderopacity="1"
     inkscape:showpageshadow="0"
     inkscape:pageopacity="0"
     inkscape:pagecheckerboard="0"
     inkscape:deskcolor="#505050"
     inkscape:document-units="mm"
     showgrid="false"
     showguides="true"
     inkscape:zoom="1.9397872"
     inkscape:cx="144.86125"
     inkscape:cy="157.74927"
     inkscape:window-width="1920"
     inkscape:window-height="1024"
     inkscape:window-x="0"
     inkscape:window-y="33"
     inkscape:window-maximized="1"
     inkscape:current-layer="layer1"><sodipodi:guide
       position="76.86761,32.602698"
       orientation="0,-1"
       id="guide4332"
       inkscape:locked="false" /><sodipodi:guide
       position="88.559851,23.047796"
       orientation="0,-1"
       id="guide4334"
       inkscape:locked="false" /></sodipodi:namedview><defs
     id="defs417" /><g
     inkscape:label="Ebene 1"
     inkscape:groupmode="layer"
     id="layer1"
     transform="translate(-4.3972259,-25.334032)"><g
       id="g25849"
       transform="translate(-12.038894,23.31531)"
       inkscape:export-filename="icons/srb2mb.png"
       inkscape:export-xdpi="181.15221"
       inkscape:export-ydpi="181.15221"><path
         id="path13720-2"
         style="opacity:0.99;fill:#54d9ff;fill-opacity:1;stroke:none;stroke-width:0.352777;stroke-linecap:round;stroke-linejoin:round;stroke-dasharray:none;stroke-opacity:1;paint-order:stroke fill markers"
         d="M 21.948152,2.2652773 C 20.571946,2.2809104 19.367447,2.7996409 18.329768,3.8042015 18.154457,3.5449911 17.878653,3.2987953 17.469872,3.0874494 17.062517,3.4603115 16.948239,4.2839769 17.293139,5.0790591 a 3.0483737,3.0483737 0 0 0 -0.340031,1.3900957 3.0483737,3.0483737 0 0 0 0.132292,0.882117 0.64168823,0.31891739 23.217289 0 0 -0.238746,0.131775 0.64168823,0.31891739 23.217289 0 0 0.464055,0.54622 0.64168823,0.31891739 23.217289 0 0 0.09353,0.035657 3.0483737,3.0483737 0 0 0 2.597258,1.4526245 3.0483737,3.0483737 0 0 0 1.191141,-0.2444295 l 0.03824,0.044958 c 1.082739,0.1662615 2.038779,0.9232302 2.996199,1.6743152 -0.06364,-1.1520087 -0.464893,-3.2082896 -1.195275,-3.1651806 0.71257,-0.299982 1.664311,-0.59566 3.231327,-0.753442 -0.601081,-1.1349848 -2.713844,-2.906629 -3.635949,-2.153357 a 3.0483737,3.0483737 0 0 0 -5.17e-4,-5.167e-4 l 2.389002,-1.97559 C 23.91132,2.4793814 22.889649,2.2545828 21.948152,2.2652773 Z" /><path
         id="path13720"
         style="opacity:0.99;fill:#00abdf;fill-opacity:1;stroke:none;stroke-width:0.352777;stroke-linecap:round;stroke-linejoin:round;stroke-dasharray:none;stroke-opacity:1;paint-order:stroke fill markers"
         d="m 21.550824,2.019087 c -1.583428,0.017987 -2.939433,0.7012764 -4.07572,2.0251994 A 3.0483737,3.0483737 0 0 0 16.55578,6.2229648 3.0483737,3.0483737 0 0 0 19.604173,9.2713576 3.0483737,3.0483737 0 0 0 20.795315,9.026928 l 0.03824,0.044958 c 1.08274,0.1662617 2.038779,0.9232303 2.9962,1.674316 C 23.766118,9.5941913 23.364862,7.5379124 22.634479,7.5810215 23.34705,7.2810394 24.298789,6.9853622 25.865806,6.8275791 25.26472,5.6925957 23.151958,3.9209493 22.229852,4.6742221 a 3.0483737,3.0483737 0 0 0 -5.16e-4,-5.167e-4 l 2.389001,-1.97559 C 23.513991,2.2331907 22.492322,2.0083924 21.550824,2.019087 Z" /><path
         style="fill:#adf7ff;fill-opacity:1;stroke:none;stroke-width:0.264583px;stroke-linecap:butt;stroke-linejoin:miter;stroke-opacity:1"
         d="m 16.893747,7.6536102 c 0.855461,-0.4682883 1.369816,0.1852446 2.168972,0.5527325 2.507199,-0.8379655 1.444082,-3.2204985 0.533411,-3.2096879 -1.679699,0.1157617 -1.769394,4.4403685 -2.591853,0.2483255 -0.672669,0.7879824 -0.448106,1.7259209 -0.11053,2.4086299 z"
         id="path13829"
         sodipodi:nodetypes="ccccc" /><ellipse
         style="opacity:0.99;fill:#00abdf;fill-opacity:1;stroke:none;stroke-width:0.352777;stroke-linecap:round;stroke-linejoin:round;stroke-dasharray:none;stroke-opacity:0.755226;paint-order:stroke fill markers"
         id="path13888"
         cx="17.261812"
         cy="6.5565157"
         ry="0.5896275"
         rx="0.18113354" /><ellipse
         style="opacity:0.99;fill:#00abdf;fill-opacity:1;stroke:none;stroke-width:0.352777;stroke-linecap:round;stroke-linejoin:round;stroke-dasharray:none;stroke-opacity:0.755226;paint-order:stroke fill markers"
         id="path13883"
         cx="19.582712"
         cy="6.6597733"
         rx="0.28341255"
         ry="0.80363154" /><path
         style="fill:#00abdf;fill-opacity:1;stroke:none;stroke-width:0.264583px;stroke-linecap:butt;stroke-linejoin:miter;stroke-opacity:1"
         d="m 16.966077,4.9813219 c -0.428168,-0.8390465 -0.326169,-1.7438248 0.106656,-2.1399996 0.657146,0.3397549 0.971212,0.7693502 1.075314,1.1987865 z"
         id="path14360"
         sodipodi:nodetypes="cccc" /><ellipse
         style="opacity:0.99;fill:#00abdf;fill-opacity:1;stroke:none;stroke-width:0.352777;stroke-linecap:round;stroke-linejoin:round;stroke-dasharray:none;stroke-opacity:0.755226;paint-order:stroke fill markers"
         id="path14414"
         cx="-0.165912"
         cy="18.611746"
         rx="0.31891739"
         ry="0.64168823"
         transform="rotate(-66.782711)" /></g></g></svg>
