<?xml version="1.0" encoding="UTF-8" standalone="no"?>
<!-- Created with Inkscape (http://www.inkscape.org/) -->

<svg
   width="51.288628"
   height="35.892609"
   viewBox="0 0 13.570116 9.496586"
   version="1.1"
   id="svg420"
   xml:space="preserve"
   inkscape:version="1.2.2 (b0a8486541, 2022-12-01)"
   sodipodi:docname="icons.svg"
   inkscape:export-filename="rosy.png"
   inkscape:export-xdpi="709.40741"
   inkscape:export-ydpi="709.40741"
   xmlns:inkscape="http://www.inkscape.org/namespaces/inkscape"
   xmlns:sodipodi="http://sodipodi.sourceforge.net/DTD/sodipodi-0.dtd"
   xmlns:xlink="http://www.w3.org/1999/xlink"
   xmlns="http://www.w3.org/2000/svg"
   xmlns:svg="http://www.w3.org/2000/svg"><sodipodi:namedview
     id="namedview422"
     pagecolor="#505050"
     bordercolor="#eeeeee"
     borderopacity="1"
     inkscape:showpageshadow="0"
     inkscape:pageopacity="0"
     inkscape:pagecheckerboard="0"
     inkscape:deskcolor="#505050"
     inkscape:document-units="mm"
     showgrid="false"
     showguides="true"
     inkscape:zoom="1.6593534"
     inkscape:cx="81.959635"
     inkscape:cy="129.86986"
     inkscape:window-width="1920"
     inkscape:window-height="1019"
     inkscape:window-x="0"
     inkscape:window-y="32"
     inkscape:window-maximized="1"
     inkscape:current-layer="layer1"><sodipodi:guide
       position="64.71773,66.609084"
       orientation="0,-1"
       id="guide4332"
       inkscape:locked="false" /><sodipodi:guide
       position="76.409971,57.054182"
       orientation="0,-1"
       id="guide4334"
       inkscape:locked="false" /></sodipodi:namedview><defs
     id="defs417"><linearGradient
       inkscape:collect="always"
       id="linearGradient42174"><stop
         style="stop-color:#11147d;stop-opacity:1;"
         offset="0"
         id="stop42170" /><stop
         style="stop-color:#1e23f4;stop-opacity:0.95299739;"
         offset="1"
         id="stop42172" /></linearGradient><linearGradient
       inkscape:collect="always"
       id="linearGradient42164"><stop
         style="stop-color:#080937;stop-opacity:1;"
         offset="0"
         id="stop42160" /><stop
         style="stop-color:#1a1eba;stop-opacity:0.87113208;"
         offset="1"
         id="stop42162" /></linearGradient><linearGradient
       inkscape:collect="always"
       xlink:href="#linearGradient42174"
       id="linearGradient45421"
       gradientUnits="userSpaceOnUse"
       gradientTransform="translate(-78.596716,44.764135)"
       x1="99.107018"
       y1="19.33935"
       x2="98.333092"
       y2="15.71854" /><linearGradient
       inkscape:collect="always"
       xlink:href="#linearGradient42174"
       id="linearGradient45423"
       gradientUnits="userSpaceOnUse"
       gradientTransform="translate(-78.596716,44.764135)"
       x1="99.107018"
       y1="19.33935"
       x2="98.333092"
       y2="15.71854" /><linearGradient
       inkscape:collect="always"
       xlink:href="#linearGradient42164"
       id="linearGradient45425"
       gradientUnits="userSpaceOnUse"
       gradientTransform="translate(-76.96675,44.764135)"
       x1="103.22263"
       y1="20.888008"
       x2="102.29508"
       y2="17.18013" /><linearGradient
       inkscape:collect="always"
       xlink:href="#linearGradient42164"
       id="linearGradient45427"
       gradientUnits="userSpaceOnUse"
       gradientTransform="translate(-76.96675,44.764135)"
       x1="103.22263"
       y1="20.888008"
       x2="102.29508"
       y2="17.18013" /></defs><g
     inkscape:label="Ebene 1"
     inkscape:groupmode="layer"
     id="layer1"
     transform="translate(-16.547106,-58.817501)"><g
       id="g30820"
       transform="translate(-79.65084,57.863389)"
       inkscape:export-filename="./icons/skybase.png"
       inkscape:export-xdpi="179.36153"
       inkscape:export-ydpi="179.36153"><path
         id="path3000"
         style="opacity:0.99;fill:#915c0e;fill-opacity:0.996663;stroke-width:7.29609;stroke-linecap:round;stroke-linejoin:round;stroke-dasharray:21.8883, 21.8883;stroke-opacity:0.17037;paint-order:stroke fill markers"
         inkscape:transform-center-x="-0.010563327"
         inkscape:transform-center-y="0.93505158"
         d="m 111.91463,10.003883 c -0.25665,0.0016 -2.24481,-1.991412 -2.1174,-2.2144897 0.12739,-0.2230777 10.40094,-0.2571314 10.5296,-0.035846 l -2.10169,2.3818607 -1.54498,-0.8555736 -2.00253,1.5498356 -1.04802,-1.2853754 z"
         sodipodi:nodetypes="cccccccc" /><path
         id="path3000-7"
         style="opacity:0.99;fill:#cb9642;fill-opacity:0.996663;stroke-width:7.29609;stroke-linecap:round;stroke-linejoin:round;stroke-dasharray:21.8883, 21.8883;stroke-opacity:0.17037;paint-order:stroke fill markers"
         inkscape:transform-center-x="-0.010561274"
         inkscape:transform-center-y="-0.93505168"
         d="m 114.87311,1.8052564 c -0.12832,-8.05e-4 -1.88214,2.9163749 -1.88214,2.9163749 l -1.24223,-0.9033176 c -0.51031,-0.3710831 -2.06659,3.9973247 -1.99596,3.9882083 0.12739,0.2230776 10.40094,0.2571314 10.5296,0.035846 l -3.63877,-4.6984872 -1.04758,1.4065362"
         sodipodi:nodetypes="ccscccc" /><path
         style="fill:#a3773a;fill-opacity:0.996078;stroke:none;stroke-width:0.264583px;stroke-linecap:butt;stroke-linejoin:miter;stroke-opacity:1"
         d="m 116.6428,3.1585143 -2.65418,3.5562976 1.92284,1.3976607 z"
         id="path29310"
         sodipodi:nodetypes="cccc" /><path
         style="fill:#a3773a;fill-opacity:0.996078;stroke:none;stroke-width:0.264583px;stroke-linecap:butt;stroke-linejoin:miter;stroke-opacity:1"
         d="m 114.11781,4.2254782 -0.18504,3.3963809 -2.51472,-0.6309589 z"
         id="path29310-3"
         sodipodi:nodetypes="cccc" /><path
         style="fill:#624113;fill-opacity:0.996078;stroke:none;stroke-width:0.264583px;stroke-linecap:butt;stroke-linejoin:miter;stroke-opacity:1"
         d="m 111.9462,10.038842 0.7444,-2.2098864 0.48574,0.4751162 0.48574,1.2561891 z"
         id="path29312"
         sodipodi:nodetypes="ccccc" /><path
         style="fill:#624113;fill-opacity:0.996078;stroke:none;stroke-width:0.264583px;stroke-linecap:butt;stroke-linejoin:miter;stroke-opacity:1"
         d="M 116.66673,9.2650266 V 7.9000971 l -1.20912,0.00625 -0.74575,2.9621689 z"
         id="path30766"
         sodipodi:nodetypes="ccccc" /><path
         style="fill:#624113;fill-opacity:0.996078;stroke:none;stroke-width:0.264583px;stroke-linecap:butt;stroke-linejoin:miter;stroke-opacity:1"
         d="m 118.27184,10.181195 2.07242,-2.4047594 -1.62354,0.2197034 z"
         id="path30768" /><path
         style="fill:#13910e;fill-opacity:0.996663;stroke:none;stroke-width:0.386085px;stroke-linecap:butt;stroke-linejoin:miter;stroke-opacity:1"
         d="m 109.72106,7.8923801 c -0.24105,-0.331934 0.33608,-1.6174673 0.64493,-2.7983841 l 1.45109,1.8084142 1.67333,-1.2288495 1.88152,1.818438 1.87282,-2.097131 1.27841,2.0493221 1.44237,-1.4075125 c 0.21916,0.8997705 0.56136,1.774922 0.34862,1.8658509 -3.91859,0.8885137 -7.00766,0.4977058 -10.59309,-0.010142 z"
         id="path14589"
         sodipodi:nodetypes="ccccccccccc" /></g><g
       id="g45443"
       transform="matrix(1.8667374,0,0,1.8667374,-5.9836701,-54.277198)"
       inkscape:export-filename="../../liquidunderground.github.io/img/icons/wsblue.svg"
       inkscape:export-xdpi="319.54001"
       inkscape:export-ydpi="319.54001"><g
         aria-label="w"
         transform="matrix(1,0,-0.21374461,1,8.1021534,0.05104348)"
         id="text37662-3"
         style="font-size:4.23333px;line-height:1.25;font-family:NiseSegaSonic;-inkscape-font-specification:'NiseSegaSonic, Normal';fill:#db2d2d;stroke:url(#linearGradient45423);stroke-width:0.264583"><path
           d="m 17.080494,60.665398 h 1.058333 l 0.396874,1.418 0.396875,-1.418 h 1.058332 l 0.396875,1.418 0.396875,-1.418 h 1.058332 l -0.926041,3.307289 h -1.058332 l -0.396875,-1.418 -0.396875,1.418 h -1.058332 z"
           id="path45217-8"
           style="fill:#786cee;fill-opacity:1;stroke:url(#linearGradient45421)" /></g><g
         aria-label="s"
         transform="matrix(1,0,-0.25015692,1,8.1021534,0.05104348)"
         id="text37716-5"
         style="font-size:4.23333px;line-height:1.25;font-family:NiseSegaSonic;-inkscape-font-specification:'NiseSegaSonic, Normal';fill:#db2d2d;stroke:url(#linearGradient45427);stroke-width:0.264583"><path
           d="m 23.845144,63.152176 q 0,-0.475423 0.405143,-0.785481 0.409277,-0.310059 1.074869,-0.289388 0.60358,-0.02067 1.260904,0.06615 l -0.235645,0.839224 q -0.268717,-0.03721 -0.706933,-0.03307 -0.434081,0.0041 -0.475422,0.14056 -0.04134,0.136426 0.107487,0.186035 0.148828,0.04548 0.516763,0.07441 0.384473,0.02894 0.661458,0.28112 0.28112,0.248046 0.28112,0.715201 0.02067,0.487825 -0.367936,0.81442 -0.384472,0.326595 -0.909505,0.310058 -0.529166,0.04961 -1.446938,-0.04961 l 0.268717,-0.839225 q 1.04593,0.04547 1.132746,-0.09922 0.09095,-0.144694 -0.07855,-0.21084 -0.152962,-0.05374 -0.446484,-0.05374 -0.293522,-0.0041 -0.653189,-0.23151 -0.396875,-0.297656 -0.388607,-0.83509 z"
           id="path45214-6"
           style="fill:#786cee;fill-opacity:1;stroke:url(#linearGradient45425)" /></g></g></g></svg>
